# xmcd
#
# Track frame offsets:
#	150
#	20384
#	46967
#	74747
#	93940
#	112283
#	147299
#	168004
#	191505
#	215679
#
# Disc length: 3212 seconds
#
# Revision: 1
# Processed by: cddbd v1.5.2PL0 Copyright (c) Steve Scherf et al.
# Submitted via: audiograbber 1.81.03
#
DISCID=910c8a0a
DTITLE=James Blood Ulmer - In And Out
DYEAR=2009
DGENRE=Blues
TTITLE0=No Man's Land
TTITLE1=A Thing for Joe
TTITLE2=Fat Mama
TTITLE3=Eviction
TTITLE4=Baby Talk
TTITLE5=Maya
TTITLE6=My Woman
TTITLE7=High Yellow
TTITLE8=I Believe In You
TTITLE9=Backbiter
EXTD=
EXTT0=
EXTT1=
EXTT2=
EXTT3=
EXTT4=
EXTT5=
EXTT6=
EXTT7=
EXTT8=
EXTT9=
PLAYORDER=
